REM MD5 470d10a9b209319f45988b2dca709cf6
FILE "Official U.S. PlayStation Magazine Demo Disc 46 (USA).bin" BINARY
  TRACK 01 MODE2/2352
    INDEX 01 00:00:00
  TRACK 02 AUDIO
    INDEX 00 33:12:45
    INDEX 01 33:14:45
  TRACK 03 AUDIO
    INDEX 00 35:53:39
    INDEX 01 35:55:39
  TRACK 04 AUDIO
    INDEX 00 36:48:29
    INDEX 01 36:50:29
REM LEADOUT 36:56:25
